# xmcd
#
# Track frame offsets:
#	150
#	14533
#	28839
#	43602
#	72013
#	84861
#	104187
#	121627
#	139132
#	156401
#
# Disc length: 2286 seconds
#
# Revision: 1
# Processed by: cddbd v1.5.2PL0 Copyright (c) Steve Scherf et al.
# Submitted via: audiograbber 1.83.01
#
DISCID=8208ec0a
DTITLE=Pelicans - Walkin' on foreign ground
DYEAR=2013
DGENRE=Country
TTITLE0=One More Last Chance
TTITLE1=Sugar Sugar
TTITLE2=Lodi
TTITLE3=Sunday Morning Comin' Down
TTITLE4=Green River
TTITLE5=Take It Easy
TTITLE6=Chicken Fried
TTITLE7=Oh Carol
TTITLE8=Blueboy
TTITLE9=Keep Your Heart Young
EXTD=www.pelicans.ch
EXTT0=Vince Gill
EXTT1=John Fogerty
EXTT2=John Fogerty
EXTT3=Kris Kristofferson
EXTT4=John Fogerty
EXTT5=Eagles
EXTT6=Zac Brown Band
EXTT7=Smokie
EXTT8=John Fogerty
EXTT9=Brandi Carlile
PLAYORDER=
